<?xml version="1.0" encoding="utf-8"?>
<!-- Generator: Adobe Illustrator 28.3.0, SVG Export Plug-In . SVG Version: 6.00 Build 0)  -->
<svg version="1.1" id="Layer_1" xmlns="http://www.w3.org/2000/svg" xmlns:xlink="http://www.w3.org/1999/xlink" x="0px" y="0px"
	 viewBox="0 0 2782.6 2200" style="enable-background:new 0 0 2782.6 2200;" xml:space="preserve">
<style type="text/css">
	.st0{fill:#FFFFFF;stroke:#FFFFFF;stroke-width:0.5;}
</style>
<g id="Regular-S" transform="matrix(1 0 0 1 1394.79 696)">
	<path class="st0" d="M-941.6,1413.1H915.1c236.1,0,352-116,352-347.9V-251.7c0-231.9-116-347.9-352-347.9H-941.6
		c-234.7,0-352,116-352,347.9v1316.9C-1293.6,1297.2-1176.3,1413.1-941.6,1413.1z M-938.8,1213c-99.4,0-156-52.5-156-157.4V-242
		c0-103.5,56.6-157.4,156-157.4H912.3c99.4,0,156,53.8,156,157.4v1297.6c0,104.9-56.6,157.4-156,157.4H-938.8z M-458.4,1251.6h194.6
		V-433.9h-194.6V1251.6z M-666.9,1c37.3,0,69-33.1,69-69c0-35.9-31.7-66.3-69-66.3h-216.7c-35.9,0-67.6,30.4-67.6,66.3
		c0,35.9,31.7,69,67.6,69H-666.9z M-666.9,277c37.3,0,69-31.8,69-69c0-35.9-31.7-66.3-69-66.3h-216.7c-35.9,0-67.6,30.4-67.6,66.3
		c0,37.3,31.7,69,67.6,69H-666.9z M-666.9,553.1c37.3,0,69-31.7,69-67.6c0-35.9-31.7-66.3-69-66.3h-216.7
		c-35.9,0-67.6,30.4-67.6,66.3c0,35.9,31.7,67.6,67.6,67.6H-666.9z"/>
</g>
</svg>
